<svg width="60" height="60" viewBox="0 0 60 60" fill="none" xmlns="http://www.w3.org/2000/svg">
<g clip-path="url(#clip0_83_8)">
<path d="M30 0.740601C13.4325 0.740601 0 14.1712 0 30.7406C0 43.995 8.59688 55.2412 20.5163 59.2068C22.0163 59.4843 22.5675 58.5562 22.5675 57.7631C22.5675 57.0487 22.5394 54.6843 22.5262 52.1775C14.1787 53.9925 12.4181 48.6375 12.4181 48.6375C11.0531 45.1706 9.08813 44.2481 9.08813 44.2481C6.36563 42.3862 9.29437 42.4237 9.29437 42.4237C12.3056 42.6356 13.8919 45.5156 13.8919 45.5156C16.5675 50.1018 20.91 48.7762 22.6219 48.0093C22.89 46.0706 23.6681 44.7468 24.5269 43.9968C17.8631 43.2393 10.8581 40.665 10.8581 29.1712C10.8581 25.8956 12.03 23.22 13.95 21.1181C13.6388 20.3625 12.6112 17.3118 14.2406 13.1793C14.2406 13.1793 16.7606 12.3731 22.4925 16.2543C24.885 15.5887 27.4519 15.2568 30.0019 15.2437C32.55 15.255 35.1188 15.5887 37.5169 16.2543C43.2431 12.3731 45.7575 13.1793 45.7575 13.1793C47.3906 17.3118 46.3631 20.3625 46.0519 21.1181C47.9756 23.2181 49.14 25.8956 49.14 29.1712C49.14 40.6931 42.1219 43.23 35.4413 43.9743C36.5175 44.9062 37.4756 46.7306 37.4756 49.53C37.4756 53.5443 37.44 56.775 37.44 57.7631C37.44 58.5618 37.98 59.4975 39.5006 59.2031C51.4144 55.2318 60 43.9912 60 30.7406C60 14.1712 46.5675 0.740601 30 0.740601Z" fill="black"/>
</g>
<defs>
<clipPath id="clip0_83_8">
<rect width="60" height="60" fill="white"/>
</clipPath>
</defs>
</svg>
