<svg width="60" height="60" viewBox="0 0 60 60" fill="none" xmlns="http://www.w3.org/2000/svg">
<g clip-path="url(#clip0_83_12)">
<path d="M0 0H60V60H0V0ZM55.0856 45.69C54.6487 42.9525 52.8656 40.6519 47.5781 38.5069C45.7387 37.6444 43.6931 37.0444 43.0856 35.6569C42.8588 34.8319 42.8231 34.3819 42.9712 33.8944C43.3462 32.28 45.2587 31.7944 46.7587 32.2444C47.7337 32.5444 48.6338 33.2944 49.1981 34.4944C51.7838 32.805 51.7838 32.805 53.5856 31.6819C52.9106 30.6319 52.575 30.18 52.1213 29.7319C50.5463 27.9694 48.4481 27.0694 45.0356 27.1462L43.2731 27.3694C41.5838 27.7819 39.9731 28.6819 38.9981 29.8819C36.1481 33.1088 36.9713 38.7338 40.4213 41.0588C43.8338 43.6088 48.8231 44.1694 49.4606 46.5712C50.0606 49.4962 47.2856 50.4338 44.5462 50.0963C42.5194 49.6463 41.3962 48.6319 40.1587 46.7569L35.5838 49.3837C36.1088 50.5837 36.7088 51.1069 37.6088 52.1569C41.9588 56.5462 52.8337 56.3213 54.7856 49.6463C54.8587 49.4213 55.3856 47.8837 54.9713 45.5212L55.0856 45.69ZM32.6269 27.5775H27.0075C27.0075 32.4225 26.985 37.2375 26.985 42.09C26.985 45.1706 27.1425 47.9981 26.64 48.8681C25.815 50.5912 23.6906 50.37 22.725 50.0681C21.735 49.5787 21.2325 48.9037 20.6494 47.9306C20.4919 47.6681 20.3737 47.4413 20.3325 47.4413L15.7706 50.2538C16.5338 51.8288 17.6456 53.1844 19.08 54.0469C21.2175 55.3219 24.09 55.7344 27.0975 55.0594C29.055 54.495 30.7425 53.3325 31.6256 51.5325C32.9006 49.2075 32.6306 46.3575 32.6175 43.1681C32.6475 38.0325 32.6175 32.895 32.6175 27.72L32.6269 27.5775Z" fill="#F7DF1E"/>
</g>
<defs>
<clipPath id="clip0_83_12">
<rect width="60" height="60" fill="white"/>
</clipPath>
</defs>
</svg>
