<svg width="60" height="60" viewBox="0 0 60 60" fill="none" xmlns="http://www.w3.org/2000/svg">
<g clip-path="url(#clip0_83_20)">
<path d="M35.775 0.45L38.025 0.950625L39.8494 1.60125L41.325 2.35125L42.45 3.15187L43.2994 4.00125L43.9237 4.85062L44.3231 5.67562L44.5725 6.42563L44.6719 7.07625L44.7225 7.57687L44.6981 7.90125V21.2512L44.5725 22.8262L44.2481 24.2006L43.7231 25.35L43.0725 26.3006L42.3225 27.075L41.4975 27.6994L40.6219 28.1738L39.7462 28.5244L38.9212 28.7737L38.1712 28.9481L37.5206 29.0475L36.9956 29.0981H22.0706L20.3456 29.2238L18.87 29.5744L17.6194 30.1237L16.5937 30.7988L15.7687 31.5994L15.0937 32.475L14.5931 33.375L14.2181 34.2994L13.9687 35.175L13.7944 35.9756L13.695 36.6506L13.6444 37.1756V44.8256H8.06999L7.54499 44.7506L6.84562 44.5763L6.04499 44.2763L5.16937 43.8263L4.26937 43.1756L3.36937 42.2756L2.49374 41.1263L1.69312 39.6506L0.993743 37.8262L0.468743 35.6269L0.118118 33.0019L-0.00750732 29.9269L0.142493 26.8762L0.541868 24.2756L1.14187 22.1006L1.94249 20.325L2.84249 18.9L3.84187 17.7994L4.89187 16.9744L5.94187 16.3744L6.94124 15.975L7.84124 15.7256L8.64187 15.6L9.24187 15.5756H9.64124L9.79124 15.6H30.1912V13.5244H15.5906L15.5662 6.64875L15.5156 5.72437L15.6412 4.875L15.9169 4.10063L16.3425 3.40125L16.9669 2.75063L17.7412 2.175L18.6919 1.67438L19.7925 1.22437L21.0675 0.849375L22.5169 0.549375L24.1162 0.3L25.8919 0.15L27.8175 0.050625L29.9175 0L33.0919 0.125625L35.775 0.45ZM20.025 5.4L19.4494 6.225L19.2487 7.25063L19.4494 8.27625L20.025 9.12563L20.85 9.675L21.8756 9.9L22.9012 9.675L23.7262 9.12563L24.3019 8.27625L24.5025 7.25063L24.3019 6.225L23.7262 5.4L22.9012 4.85062L21.8756 4.62563L20.85 4.85062L20.025 5.4ZM52.7494 15.2756L53.4487 15.4256L54.2494 15.7256L55.125 16.1756L56.025 16.8506L56.925 17.7263L57.8006 18.9019L58.6012 20.3775L59.3006 22.2019L59.8256 24.4012L60.1762 27.0019L60.3019 30.0769L60.1519 33.1519L59.7525 35.7525L59.1525 37.9031L58.3519 39.6788L57.4519 41.1038L56.4525 42.2287L55.4025 43.0537L54.3525 43.6537L53.3531 44.0531L52.4531 44.2781L51.6525 44.4037L51.0525 44.4544L50.6531 44.43H30.1031V46.4794H44.7037L44.7281 53.3794L44.7787 54.2794L44.6531 55.1288L44.3775 55.9031L43.9519 56.6287L43.3275 57.2531L42.5531 57.8531L41.6025 58.3537L40.5019 58.7794L39.2269 59.1544L37.7775 59.4788L36.1781 59.7037L34.4025 59.8781L32.4769 59.9775L30.3769 60.0019L27.2025 59.9025L24.5269 59.5519L22.2769 59.0512L20.4525 58.4269L18.9769 57.6769L17.8519 56.8519L17.0025 56.0025L16.3781 55.1531L15.9787 54.3281L15.7294 53.5781L15.63 52.9538L15.5794 52.4531L15.6037 52.1288V38.7787L15.7294 37.1794L16.0537 35.8294L16.5787 34.68L17.2294 33.7294L17.9794 32.9288L18.8044 32.3288L19.68 31.8281L20.5556 31.4775L21.3806 31.2281L22.1306 31.0781L22.7812 30.9787L23.3062 30.9281L23.6306 30.9038H38.2312L39.9562 30.7781L41.4319 30.4275L42.6825 29.9025L43.7081 29.2031L44.5331 28.4025L45.2081 27.5269L45.7087 26.6269L46.0837 25.7269L46.3331 24.8512L46.5075 24.0506L46.6069 23.3513L46.6575 22.8262V15.1762H51.8831L52.2337 15.2006L52.7494 15.2756ZM36.5756 50.9006L36 51.7256L35.7994 52.7513L36 53.7769L36.5756 54.6019L37.4006 55.1775L38.4262 55.3781L39.4519 55.1775L40.2769 54.6019L40.8525 53.7769L41.0531 52.7513L40.8525 51.7256L40.2769 50.9006L39.4519 50.325L38.4262 50.1244L37.4006 50.325L36.5756 50.9006Z" fill="#3776AB"/>
</g>
<defs>
<clipPath id="clip0_83_20">
<rect width="60" height="60" fill="white"/>
</clipPath>
</defs>
</svg>
