<svg width="60" height="60" viewBox="0 0 60 60" fill="none" xmlns="http://www.w3.org/2000/svg">
<path d="M30 24.6524C27.0469 24.6524 24.6525 27.0468 24.6525 29.9999C24.6525 32.9531 27.0469 35.3474 30 35.3474C32.9531 35.3474 35.3475 32.9531 35.3475 29.9999C35.3475 27.0468 32.9531 24.6524 30 24.6524ZM15.0206 40.6368L13.8413 40.3368C5.04564 38.1149 0.00189209 34.3424 0.00189209 29.9887C0.00189209 25.6349 5.04752 21.8643 13.8413 19.6406L15.0206 19.3424L15.3525 20.5124C16.3744 23.9999 17.5331 26.9681 18.9131 29.8068L18.7594 29.4581L19.0125 29.9906L18.7594 30.5231C17.5294 33.0149 16.3688 35.9831 15.4575 39.0562L15.3525 39.4687L15.0206 40.6368ZM13.2919 22.3743C6.60752 24.2512 2.50502 27.1237 2.50502 29.9887C2.50502 32.8518 6.60752 35.7243 13.2919 37.6031C14.2519 34.5656 15.2531 32.0437 16.4081 29.6099L16.2469 29.9887C15.2513 27.9299 14.2481 25.4081 13.4138 22.8112L13.2919 22.3743ZM44.9794 40.6368L44.6475 39.4649C43.6275 35.9793 42.4688 33.0131 41.085 30.1762L41.2369 30.5212L40.9838 29.9887L41.2369 29.4562C42.4669 26.9643 43.6275 23.9981 44.5406 20.9249L44.6456 20.5106L44.9775 19.3406L46.1606 19.6387C54.9525 21.8606 59.9981 25.6331 59.9981 29.9887C59.9981 34.3443 54.9525 38.1131 46.1606 40.3368L44.9794 40.6368ZM43.7531 29.9906C44.9531 32.5874 45.945 35.1412 46.7081 37.6049C53.3963 35.7243 57.495 32.8518 57.495 29.9906C57.495 27.1256 53.3925 24.2549 46.7081 22.3762C45.75 25.4118 44.7488 27.9318 43.5919 30.3674L43.7531 29.9924V29.9906ZM13.275 22.3631L12.9431 21.1949C10.47 12.4799 11.22 6.23432 15 4.05557C18.7069 1.91619 24.66 4.44369 30.8981 10.8449L31.7475 11.7168L30.8981 12.5887C28.7494 14.8199 26.76 17.2424 24.9694 19.8131L24.8419 20.0062L24.5044 20.4881L23.9175 20.5387C20.4019 20.8218 17.175 21.3618 14.0475 22.1512L14.4563 22.0631L13.275 22.3631ZM18.015 5.78807C17.3456 5.78807 16.7531 5.93244 16.2525 6.22119C13.7681 7.65369 13.3275 12.6337 15.0394 19.3537C17.3081 18.8193 20.0663 18.3768 22.8769 18.1199L23.1225 18.1012C24.7988 15.7312 26.4825 13.6574 28.29 11.6999L28.2525 11.7412C24.3525 7.94432 20.6606 5.78807 18.015 5.78807ZM41.9869 56.6924C41.985 56.6924 41.985 56.6924 41.9869 56.6924C38.4244 56.6924 33.8494 54.0093 29.1019 49.1343L28.2525 48.2624L29.1019 47.3906C31.2506 45.1593 33.2381 42.7368 35.0269 40.1643L35.1544 39.9712L35.4919 39.4893L36.0769 39.4387C39.5925 39.1574 42.8213 38.6174 45.9525 37.8299L45.5438 37.9162L46.7231 37.6181L47.0588 38.7881C49.5263 47.4974 48.7781 53.7449 44.9981 55.9237C44.1563 56.4093 43.1456 56.6943 42.0694 56.6943C42.0394 56.6943 42.0113 56.6943 41.9813 56.6943H41.985L41.9869 56.6924ZM31.7475 48.2399C35.6475 52.0368 39.3394 54.1931 41.985 54.1931C42.6525 54.1931 43.2488 54.0487 43.7475 53.7599C46.2319 52.3274 46.6744 47.3456 44.9606 40.6256C42.6881 41.1618 39.9319 41.6043 37.1194 41.8593L36.8756 41.8781C35.2013 44.2499 33.5175 46.3237 31.71 48.2831L31.7475 48.2399ZM46.725 22.3631L45.5456 22.0649C42.8213 21.3599 39.5925 20.8199 36.285 20.5537L36.0769 20.5406L35.4919 20.4899L35.1544 20.0081C33.24 17.2443 31.2506 14.8218 29.085 12.5718L29.1019 12.5906L28.2525 11.7187L29.1019 10.8468C35.3363 4.44744 41.2875 1.91994 45 4.05744C48.78 6.23807 49.53 12.4818 47.0606 21.1949L46.725 22.3631ZM36.8756 18.0993C39.7313 18.3599 42.4425 18.7818 44.9606 19.3518C46.6763 12.6318 46.2338 7.65182 43.7475 6.21932C41.2781 4.79244 36.6356 6.97869 31.7475 11.7393C33.5156 13.6556 35.1994 15.7293 36.7463 17.9062L36.8756 18.0993ZM18.015 56.6924C17.9888 56.6924 17.9588 56.6924 17.9288 56.6924C16.8525 56.6924 15.8419 56.4074 14.9719 55.9068L15 55.9218C11.22 53.7449 10.47 47.4993 12.9431 38.7862L13.2731 37.6162L14.4525 37.9143C17.34 38.6418 20.5256 39.1537 23.9156 39.4368L24.5025 39.4874L24.8381 39.9693C26.7544 42.7349 28.7438 45.1574 30.9113 47.4074L30.8925 47.3887L31.7419 48.2606L30.8925 49.1324C26.1469 54.0074 21.5719 56.6924 18.015 56.6924ZM15.0394 40.6256C13.3238 47.3456 13.7663 52.3274 16.2525 53.7599C18.72 55.1681 23.3606 52.9968 28.2525 48.2399C26.4844 46.3237 24.8006 44.2481 23.2519 42.0712L23.1225 41.8781C20.0681 41.6043 17.3119 41.1618 14.6213 40.5449L15.0413 40.6256H15.0394ZM30 42.1949C27.9431 42.1949 25.8281 42.1049 23.7094 41.9306L23.1225 41.8799L22.785 41.3981C21.765 39.9581 20.6494 38.2274 19.6031 36.4499L19.41 36.0937C18.5625 34.6724 17.5894 32.8462 16.6913 30.9787L16.4944 30.5231L16.245 29.9906L16.4944 29.4581C17.5894 27.1349 18.5606 25.3106 19.6031 23.5312L19.41 23.8893C20.445 22.0987 21.5831 20.3137 22.785 18.5849L23.1225 18.1012L23.7094 18.0524C25.5938 17.8837 27.7856 17.7862 30 17.7862C32.2144 17.7862 34.4063 17.8837 36.5719 18.0731L36.2906 18.0524L36.8756 18.1031L37.2113 18.5849C39.4181 21.7087 41.5125 25.2731 43.3088 29.0099L43.5038 29.4599L43.7569 29.9924L43.5038 30.5249C41.52 34.7099 39.4238 38.2743 37.0556 41.6343L37.2113 41.3999L36.8756 41.8818L36.2906 41.9324C34.1738 42.1068 32.055 42.1968 29.9981 42.1968L30 42.1949ZM24.5081 39.4856C28.2075 39.7631 31.7925 39.7631 35.4956 39.4856C37.3781 36.7762 39.2044 33.6656 40.7963 30.4181L40.9856 29.9906C39.21 26.3193 37.3819 23.2087 35.3381 20.2593L35.4938 20.4956C33.8494 20.3624 31.935 20.2874 30.0019 20.2874C28.0688 20.2874 26.1544 20.3624 24.2588 20.5106L24.51 20.4956C22.62 23.2087 20.7919 26.3193 19.2038 29.5706L19.0181 29.9906C20.8013 33.6656 22.6294 36.7762 24.6694 39.7274L24.51 39.4837L24.5081 39.4856Z" fill="#61DAFB"/>
</svg>
