<svg width="60" height="60" viewBox="0 0 60 60" fill="none" xmlns="http://www.w3.org/2000/svg">
<path d="M30 0C46.5675 0 60 13.4325 60 30C60 46.5675 46.5675 60 30 60C13.4325 60 0 46.5675 0 30C0 13.4325 13.4325 0 30 0ZM24.0375 39.9956C24.4744 41.6081 24.4275 43.1156 23.9775 44.475L23.8144 44.925C23.7544 45.0769 23.685 45.225 23.6194 45.3656C23.2688 46.0912 22.8038 46.7663 22.2319 47.3906C20.4863 49.2881 18.0525 50.0081 17.0062 49.4025C15.8812 48.7481 16.4419 46.065 18.4669 43.9275C20.6438 41.6325 23.7675 40.155 23.7675 40.155V40.1475L24.0375 39.9956ZM48.8156 12.8419C47.46 7.50938 38.6231 5.75625 30.2606 8.73C25.2881 10.4981 19.9013 13.275 16.0275 16.8975C11.4206 21.2006 10.6875 24.9506 10.9894 26.5181C12.0563 32.0456 19.6312 35.6606 22.7475 38.3438V38.3587C21.8306 38.8087 15.1069 42.1819 13.5319 45.6712C11.8444 49.3462 13.7944 51.9731 15.0694 52.3088C19.0069 53.3981 23.0569 51.4087 25.2319 48.1856C27.3319 45.0337 27.1463 40.9838 26.2425 38.9963C27.4819 38.6588 28.9425 38.5088 30.8175 38.7356C36.0694 39.3356 37.1194 42.6356 36.8925 43.9856C36.6675 45.3338 35.5856 46.1213 35.2069 46.3463C34.8319 46.5731 34.7194 46.6463 34.755 46.7981C34.7925 47.0231 34.9819 47.0231 35.28 46.9856C35.6925 46.9106 38.0194 45.8606 38.1319 43.3088C38.2444 40.0838 35.1675 36.4856 29.6944 36.5588C27.4444 36.5981 26.0175 36.7856 25.0069 37.1981C24.9319 37.0856 24.855 37.0106 24.7444 36.9356C21.3694 33.2981 15.1069 30.7481 15.3694 25.9106C15.4444 24.1481 16.0819 19.5 27.3694 13.875C36.6319 9.26062 44.0213 10.5375 45.2963 13.35C47.1281 17.3606 41.3569 24.825 31.7194 25.9106C28.0444 26.3231 26.1319 24.9 25.6425 24.3731C25.1194 23.8106 25.0444 23.7731 24.8569 23.8875C24.5569 24.0375 24.7444 24.525 24.8569 24.825C25.1569 25.575 26.3194 26.8875 28.3463 27.5625C30.1069 28.125 34.4212 28.4606 39.5962 26.4375C45.4069 24.1894 49.9444 17.925 48.6319 12.675L48.8156 12.8419Z" fill="#CC6699"/>
</svg>
