<svg width="100" height="60" viewBox="0 0 100 60" fill="none" xmlns="http://www.w3.org/2000/svg">
<path d="M50 0C36.6667 0 28.3333 6.6667 25 20C30 13.3333 35.8333 10.8333 42.5 12.5C46.3042 13.45 49.0208 16.2083 52.0333 19.2667C56.9375 24.2417 62.6083 30 75 30C88.3333 30 96.6667 23.3333 100 10C95 16.6667 89.1667 19.1667 82.5 17.5C78.6958 16.55 75.9792 13.7917 72.9667 10.7333C68.0667 5.7583 62.3959 0 50 0ZM25 30C11.6667 30 3.3333 36.6667 0 50C5 43.3333 10.8333 40.8333 17.5 42.5C21.3042 43.45 24.0208 46.2083 27.0333 49.2667C31.9375 54.2417 37.6083 60 50 60C63.3333 60 71.6667 53.3333 75 40C70 46.6667 64.1667 49.1667 57.5 47.5C53.6958 46.55 50.9792 43.7917 47.9667 40.7333C43.0667 35.7583 37.3959 30 25 30Z" fill="#38B2AC"/>
</svg>
