<svg width="60" height="60" viewBox="0 0 60 60" fill="none" xmlns="http://www.w3.org/2000/svg">
<g clip-path="url(#clip0_83_16)">
<rect width="60" height="60" fill="white"/>
<path d="M41.0119 14.1899C40.725 14.1899 40.53 14.2256 40.3275 14.2724V14.3043H40.3631C40.4981 14.5649 40.7287 14.7543 40.8975 14.9868C41.0325 15.2549 41.1469 15.5212 41.2819 15.7874L41.3175 15.7499C41.5519 15.5849 41.6681 15.3206 41.6681 14.9174C41.5687 14.7993 41.5537 14.6831 41.4675 14.5668C41.3681 14.3999 41.1525 14.3174 41.0119 14.1899ZM14.4244 47.1749H12.1069C12.0319 43.2693 11.7994 39.5999 11.4319 36.1499H11.4112L7.88623 47.1749H6.12373L2.62311 36.1499H2.59873C2.34186 39.4574 2.17873 43.1324 2.11123 47.1749H-0.00189209C0.134983 42.2606 0.478108 37.6499 1.02373 33.3506H3.89811L7.23561 43.5112H7.25623L10.6237 33.3506H13.3612C13.9669 38.3887 14.3212 43.0012 14.4244 47.1749ZM24.4669 36.9749C23.5219 42.0881 22.2769 45.8081 20.7375 48.1256C19.5319 49.9162 18.2119 50.8087 16.7794 50.8087C16.3969 50.8087 15.93 50.6943 15.3637 50.4637V49.2281C15.6394 49.2712 15.9637 49.2937 16.3294 49.2937C16.9987 49.2937 17.5369 49.1062 17.9475 48.7387C18.4406 48.2887 18.6844 47.7843 18.6844 47.2256C18.6844 46.8374 18.4912 46.0499 18.1087 44.8649L15.5737 36.9749H17.8481L19.665 42.8756C20.0756 44.2162 20.2481 45.1499 20.1769 45.6824C21.1762 43.0218 21.8719 40.1156 22.2637 36.9749H24.4669ZM55.2806 47.1749H48.705V33.3506H50.9175V45.4762H55.2806V47.1749ZM46.98 47.5124L44.4394 46.2618C44.6644 46.0724 44.8819 45.8662 45.0769 45.6374C46.1587 44.3718 46.6969 42.4931 46.6969 40.0049C46.6969 35.4299 44.9025 33.1406 41.31 33.1406C39.5494 33.1406 38.175 33.7199 37.185 34.8824C36.1106 36.1518 35.5706 38.0231 35.5706 40.4943C35.5706 42.9243 36.045 44.7093 37.005 45.8437C37.8806 46.8693 39.1969 47.3812 40.9631 47.3812C41.6231 47.3812 42.2287 47.2987 42.7762 47.1356L46.0894 49.0649L46.98 47.5124ZM38.7506 44.4074C38.1881 43.5074 37.9087 42.0581 37.9087 40.0668C37.9087 36.5849 38.9681 34.8412 41.0831 34.8412C42.1912 34.8412 43.0087 35.2593 43.5262 36.0918C44.0869 36.9974 44.3662 38.4318 44.3662 40.3987C44.3662 43.9087 43.3069 45.6693 41.1919 45.6693C40.08 45.6693 39.2644 45.2512 38.7506 44.4074ZM34.605 43.3443C34.605 44.5199 34.1756 45.4837 33.315 46.2337C32.4544 46.9837 31.3069 47.3587 29.8556 47.3587C28.4981 47.3587 27.195 46.9293 25.9237 46.0706L26.5162 44.8799C27.6112 45.4293 28.5994 45.6993 29.4919 45.6993C30.3225 45.6993 30.975 45.5174 31.4494 45.1499C31.92 44.7824 32.1994 44.2649 32.1994 43.6124C32.1994 42.7874 31.6237 42.0881 30.5794 41.4993C29.61 40.9668 27.6712 39.8568 27.6712 39.8568C26.6156 39.0899 26.0906 38.2668 26.0906 36.9149C26.0906 35.7899 26.4825 34.8899 27.2662 34.2018C28.0537 33.5062 29.0662 33.1649 30.3169 33.1649C31.5975 33.1649 32.7675 33.5043 33.8175 34.1906L33.285 35.3812C32.385 35.0006 31.4981 34.8056 30.6244 34.8056C29.9175 34.8056 29.37 34.9762 28.9894 35.3212C28.6069 35.6606 28.3687 36.0956 28.3687 36.6318C28.3687 37.4512 28.9537 38.1562 30.0337 38.7562C31.0162 39.2943 33.0019 40.4306 33.0019 40.4306C34.0837 41.1937 34.6219 42.0056 34.6069 43.3424L34.605 43.3443ZM58.0594 28.7156C56.7225 28.6799 55.6837 28.8149 54.8175 29.1862C54.5681 29.2856 54.1669 29.2856 54.1331 29.6043C54.27 29.7374 54.2906 29.9549 54.4087 30.1387C54.6094 30.4743 54.9544 30.9206 55.2731 31.1568C55.6237 31.4324 55.9725 31.6968 56.34 31.9312C56.9906 32.3306 57.7275 32.5687 58.365 32.9718C58.7269 33.2062 59.0981 33.5043 59.4656 33.7537C59.6475 33.8793 59.7656 34.1043 60 34.1831V34.1324C59.8856 33.9824 59.85 33.7649 59.7375 33.5981C59.5706 33.4312 59.4019 33.2812 59.2369 33.1162C58.7512 32.4656 58.1494 31.8993 57.4987 31.4287C56.9644 31.0631 55.7944 30.5531 55.5731 29.9418L55.5412 29.9062C55.9069 29.8743 56.3419 29.7412 56.6906 29.6418C57.2587 29.4918 57.7781 29.5237 58.365 29.3774C58.6294 29.3099 58.8975 29.2274 59.1656 29.1431V28.9931C58.8656 28.6931 58.6406 28.2862 58.3312 28.0049C57.4819 27.2681 56.5387 26.5499 55.5712 25.9481C55.0462 25.6124 54.3806 25.3987 53.8294 25.1137C53.6287 25.0143 53.295 24.9637 53.1787 24.7968C52.8787 24.4312 52.7044 23.9474 52.4906 23.5124C52.0106 22.5918 51.54 21.5756 51.1237 20.6043C50.8237 19.9499 50.6419 19.2974 50.2744 18.6974C48.5494 15.8549 46.6819 14.1318 43.8094 12.4481C43.1925 12.0974 42.4519 11.9474 41.67 11.7637C41.2519 11.7431 40.8356 11.7131 40.4194 11.6962C40.1437 11.5781 39.8794 11.2612 39.645 11.1093C38.6944 10.5093 36.2344 9.20994 35.535 10.9293C35.085 12.0149 36.2025 13.0837 36.5906 13.6349C36.8775 14.0174 37.2412 14.4543 37.44 14.8856C37.5581 15.1762 37.59 15.4724 37.7081 15.7762C37.9725 16.5112 38.2256 17.3306 38.5762 18.0187C38.7581 18.3693 38.9587 18.7368 39.1931 19.0518C39.3281 19.2337 39.5587 19.3199 39.6112 19.6199C39.3769 19.9593 39.3619 20.4543 39.2269 20.8706C38.6269 22.7624 38.8612 25.1024 39.7125 26.4956C39.9806 26.9099 40.6181 27.8306 41.4694 27.4781C42.2194 27.1781 42.0544 26.2274 42.27 25.3912C42.3206 25.1906 42.2869 25.0593 42.39 24.9243V24.9618C42.6244 25.4324 42.8606 25.8787 43.0744 26.3493C43.59 27.1687 44.49 28.0199 45.2419 28.5862C45.6412 28.8862 45.96 29.4056 46.4587 29.5912V29.5406H46.4212C46.3144 29.3962 46.1719 29.3249 46.0369 29.2087C45.7369 28.9087 45.3994 28.5412 45.1612 28.2093C44.4619 27.2662 43.8431 26.2349 43.2937 25.1643C43.0181 24.6393 42.7894 24.0749 42.5681 23.5574C42.4687 23.3568 42.4687 23.0568 42.3 22.9574C42.0506 23.3231 41.6831 23.6399 41.4994 24.0899C41.1825 24.8099 41.1487 25.6949 41.0287 26.6156C40.9612 26.6324 40.9931 26.6156 40.9612 26.6512C40.4269 26.5218 40.2431 25.9668 40.0444 25.5018C39.5437 24.3149 39.4612 22.4062 39.8944 21.0393C40.0125 20.6887 40.5112 19.5843 40.3125 19.2487C40.2075 18.9318 39.8775 18.7481 39.6956 18.4912C39.4781 18.1818 39.2456 17.7787 39.0956 17.4243C38.6962 16.4887 38.4956 15.4537 38.0606 14.5199C37.86 14.0868 37.5112 13.6349 37.2262 13.2374C36.9094 12.7874 36.5587 12.4706 36.3056 11.9381C36.2231 11.7562 36.105 11.4524 36.2381 11.2537C36.2737 11.1187 36.3431 11.0662 36.4725 11.0287C36.6919 10.8487 37.3106 11.0831 37.5281 11.1843C38.145 11.4337 38.6662 11.6699 39.1837 12.0187C39.4181 12.1837 39.6712 12.5006 39.9712 12.5831H40.3219C40.8562 12.7012 41.46 12.6187 41.9587 12.7649C42.8456 13.0499 43.6462 13.4643 44.3644 13.9143C46.5544 15.3037 48.3544 17.2762 49.5769 19.6293C49.7775 20.0137 49.8637 20.3662 50.0475 20.7674C50.3981 21.5924 50.8294 22.4249 51.1856 23.2218C51.5362 24.0093 51.8737 24.8118 52.3762 25.4643C52.6256 25.8149 53.6306 25.9968 54.0806 26.1787C54.4125 26.3287 54.93 26.4656 55.23 26.6493C55.8056 26.9999 56.3644 27.3993 56.9044 27.7837C57.18 27.9731 58.0125 28.3912 58.0612 28.7287L58.0594 28.7156Z" fill="#00758F"/>
</g>
<defs>
<clipPath id="clip0_83_16">
<rect width="60" height="60" fill="white"/>
</clipPath>
</defs>
</svg>
